<?xml version="1.0" standalone="no"?>
<!DOCTYPE svg PUBLIC "-//W3C//DTD SVG 20010904//EN"
 "http://www.w3.org/TR/2001/REC-SVG-20010904/DTD/svg10.dtd">
<svg version="1.0" xmlns="http://www.w3.org/2000/svg"
 width="512.000000pt" height="512.000000pt" viewBox="0 0 512.000000 512.000000"
 preserveAspectRatio="xMidYMid meet">

<g transform="translate(0.000000,512.000000) scale(0.100000,-0.100000)"
fill="#000000" stroke="none">
<path d="M810 4880 c-11 -11 -20 -33 -20 -50 0 -17 9 -39 20 -50 18 -18 33
-20 165 -20 l145 0 0 -135 0 -135 -283 0 c-351 0 -323 16 -313 -172 3 -73 9
-154 12 -180 l6 -47 -180 -3 c-160 -3 -182 -5 -201 -22 -24 -22 -27 -64 -7
-92 13 -17 31 -19 217 -24 l203 -5 27 -90 c133 -454 424 -856 807 -1114 45
-30 62 -47 58 -59 -6 -20 -203 -836 -251 -1037 -19 -77 -97 -401 -174 -719
-78 -319 -141 -590 -141 -603 0 -53 78 -84 114 -45 14 16 89 317 351 1400 l5
22 1190 0 c1123 0 1189 -1 1194 -17 14 -49 146 -606 146 -616 0 -7 -16 -21
-35 -31 -55 -30 -133 -119 -168 -193 -30 -64 -32 -74 -32 -183 0 -109 2 -119
32 -183 84 -176 282 -282 470 -250 236 41 403 270 364 501 -25 144 -113 262
-246 328 -59 29 -87 37 -161 42 l-89 7 -37 155 c-20 85 -57 238 -82 340 -82
341 -257 1065 -262 1081 -3 10 20 32 72 69 94 65 270 215 278 236 19 49 -14
104 -61 104 -14 0 -49 -24 -90 -61 -287 -261 -617 -420 -1008 -485 -137 -23
-433 -23 -570 0 -548 92 -1002 382 -1301 831 -172 259 -289 596 -311 894 l-6
90 1903 0 1903 0 -6 -89 c-10 -134 -51 -327 -102 -475 -40 -116 -44 -136 -34
-159 13 -28 41 -40 80 -34 31 4 66 75 112 228 l35 115 202 5 c185 5 203 7 216
24 20 28 17 70 -7 92 -19 17 -41 19 -201 22 l-180 3 6 47 c3 26 9 107 12 180
10 188 38 172 -313 172 l-283 0 0 135 0 135 145 0 c132 0 147 2 165 20 26 26
26 74 0 100 -20 20 -33 20 -1750 20 -1717 0 -1730 0 -1750 -20z m860 -255 l0
-135 -202 2 -203 3 -3 133 -3 132 206 0 205 0 0 -135z m548 3 l-3 -133 -202
-3 -203 -2 0 135 0 135 205 0 206 0 -3 -132z m542 -3 l0 -135 -200 0 -200 0 0
135 0 135 200 0 200 0 0 -135z m550 0 l0 -135 -202 2 -203 3 -3 133 -3 132
206 0 205 0 0 -135z m548 3 l-3 -133 -202 -3 -203 -2 0 135 0 135 205 0 206 0
-3 -132z m-2147 -2057 c263 -125 534 -183 849 -183 318 0 581 57 853 185 59
27 109 48 111 46 5 -5 186 -752 186 -768 0 -8 -300 -11 -1150 -11 -854 0
-1150 3 -1150 11 0 26 184 769 191 769 3 0 53 -22 110 -49z m2516 -1639 c65
-34 110 -78 140 -140 38 -76 39 -182 3 -257 -90 -185 -323 -232 -473 -95 -70
64 -98 126 -98 221 -1 124 73 234 184 279 69 27 183 23 244 -8z"/>
<path d="M4140 3365 c-31 -46 -50 -85 -50 -103 0 -56 68 -85 110 -47 31 28
100 139 100 161 0 38 -28 64 -70 64 -38 0 -41 -3 -90 -75z"/>
</g>
</svg>
